<svg data-name="Layer 1" xmlns="http://www.w3.org/2000/svg" viewBox="0 0 128 128"><path d="M54 80.19h20a1.75 1.75 0 0 0 1.75-1.75v-5.11a11.068 11.068 0 0 0-4.394-8.83 9.977 9.977 0 1 0-14.712 0 11.068 11.068 0 0 0-4.394 8.83v5.11A1.75 1.75 0 0 0 54 80.19zm10-28.884a6.477 6.477 0 1 1-6.477 6.477A6.484 6.484 0 0 1 64 51.306zM55.75 73.33a7.562 7.562 0 0 1 3.875-6.594 9.857 9.857 0 0 0 8.749 0 7.562 7.562 0 0 1 3.876 6.594v3.36h-16.5zM118.858 21.442a9.977 9.977 0 1 0-14.716 0 11.079 11.079 0 0 0-4.392 8.838v5.11a1.75 1.75 0 0 0 1.75 1.75h20a1.75 1.75 0 0 0 1.75-1.75v-5.11a11.079 11.079 0 0 0-4.392-8.838zM111.5 8.25a6.477 6.477 0 1 1-6.477 6.478A6.485 6.485 0 0 1 111.5 8.25zm8.25 25.39h-16.5v-3.36a7.571 7.571 0 0 1 3.871-6.6 9.857 9.857 0 0 0 8.758 0 7.571 7.571 0 0 1 3.871 6.6zM78.667 62.25a1.738 1.738 0 0 0 1.077-.372l25.141-19.667a1.75 1.75 0 1 0-2.156-2.756L77.588 59.122a1.75 1.75 0 0 0 1.079 3.128zM6.5 37.14h20a1.75 1.75 0 0 0 1.75-1.75v-5.11a11.079 11.079 0 0 0-4.392-8.839 9.977 9.977 0 1 0-14.716 0A11.079 11.079 0 0 0 4.75 30.28v5.11a1.75 1.75 0 0 0 1.75 1.75zm10-28.89a6.477 6.477 0 1 1-6.477 6.478A6.485 6.485 0 0 1 16.5 8.25zM8.25 30.28a7.571 7.571 0 0 1 3.871-6.6 9.857 9.857 0 0 0 8.758 0 7.571 7.571 0 0 1 3.871 6.6v3.36H8.25zM23.853 107.558a9.977 9.977 0 1 0-14.707 0 11.066 11.066 0 0 0-4.4 8.832v5.11a1.75 1.75 0 0 0 1.75 1.75h20a1.75 1.75 0 0 0 1.75-1.75v-5.11a11.066 11.066 0 0 0-4.393-8.832zM16.5 94.361a6.477 6.477 0 1 1-6.477 6.477 6.484 6.484 0 0 1 6.477-6.477zm8.25 25.389H8.25v-3.36a7.56 7.56 0 0 1 3.88-6.6 9.856 9.856 0 0 0 8.74 0 7.56 7.56 0 0 1 3.88 6.6zM118.853 107.558a9.977 9.977 0 1 0-14.707 0 11.066 11.066 0 0 0-4.4 8.832v5.11a1.75 1.75 0 0 0 1.75 1.75h20a1.75 1.75 0 0 0 1.75-1.75v-5.11a11.066 11.066 0 0 0-4.393-8.832zm-7.353-13.2a6.477 6.477 0 1 1-6.477 6.477 6.484 6.484 0 0 1 6.477-6.474zm8.25 25.389h-16.5v-3.36a7.56 7.56 0 0 1 3.88-6.6 9.856 9.856 0 0 0 8.74 0 7.56 7.56 0 0 1 3.88 6.6zM22.814 39.755a1.75 1.75 0 0 0 .3 2.456l25.141 19.667a1.75 1.75 0 1 0 2.156-2.756l-25.14-19.667a1.749 1.749 0 0 0-2.457.3zM55.921 83.122l-26.5 20.75a1.75 1.75 0 0 0 2.158 2.756l26.5-20.75a1.75 1.75 0 1 0-2.158-2.756zM98.579 103.872l-26.5-20.75a1.75 1.75 0 0 0-2.158 2.756l26.5 20.75a1.75 1.75 0 1 0 2.158-2.756z"/></svg>